<?xml version="1.0" encoding="utf-8"?>
<!-- Generator: Adobe Illustrator 19.0.0, SVG Export Plug-In . SVG Version: 6.00 Build 0)  -->
<svg version="1.1" id="Layer_1" xmlns="http://www.w3.org/2000/svg" xmlns:xlink="http://www.w3.org/1999/xlink" x="0px" y="0px"
	 viewBox="0 0 500 500" style="enable-background:new 0 0 500 500;" xml:space="preserve">
<style type="text/css">
	.st0{fill:url(#XMLID_49_);}
	.st1{fill:#545454;}
	.st2{fill:#FF6600;}
	.st3{fill:url(#XMLID_50_);}
</style>
<g id="XMLID_1_">
	
		<linearGradient id="XMLID_49_" gradientUnits="userSpaceOnUse" x1="0.4165" y1="3.833181e-002" x2="1.0339" y2="3.833181e-002" gradientTransform="matrix(0 -114.8402 114.8402 0 239.5327 318.1883)">
		<stop  offset="0" style="stop-color:#2E2E2E"/>
		<stop  offset="1" style="stop-color:#656565"/>
	</linearGradient>
	<path id="XMLID_15_" class="st0" d="M90.9,200.5c-4.4,0-8.2,0.7-11.6,2c-3.4,1.3-6,3.1-7.9,5.4c-1.9,2.3-3.1,4.6-3.4,7.1
		c-0.4,2.5-0.6,6.1-0.6,11.1v19.9c0,6.7,0.6,11.7,1.9,15c1.2,3.3,3.8,5.9,7.6,7.8c3.8,1.9,8.7,2.8,14.6,2.8c5.7,0,10.4-1.1,14.3-3.4
		c3.9-2.2,6.4-4.8,7.5-7.7c1.1-2.9,1.7-7.9,1.7-15v-2.6H94.9v8.5c0,3.7-0.2,6.1-0.7,7.1c-0.5,1-1.4,1.5-2.9,1.5
		c-1.6,0-2.6-0.5-3-1.5c-0.4-1-0.7-3.2-0.7-6.5v-31.7c0-3.5,0.2-5.7,0.7-6.7c0.4-1,1.5-1.6,3.1-1.6c1.5,0,2.4,0.4,2.8,1.3
		c0.4,0.9,0.7,3,0.7,6.5v11.9H115v-6.5c0-6.4-0.6-11.1-1.8-14.1c-1.2-3-3.8-5.5-7.6-7.5C101.7,201.5,96.8,200.5,90.9,200.5z
		 M251.9,201.9v68.2h25c4.7,0,8.3-0.2,10.7-0.7c2.4-0.5,4.3-1.3,5.9-2.5c1.6-1.2,2.7-2.8,3.4-4.8c0.6-2.1,1-6.2,1-12.3V226
		c0-6.5-0.2-10.8-0.7-13c-0.4-2.2-1.5-4.2-3.3-6c-1.8-1.8-4.3-3.1-7.7-3.9c-3.4-0.8-9.8-1.2-19.4-1.2H251.9z M301.7,201.9v40.3
		c0,7.7,0.2,12.7,0.5,15.1c0.3,2.4,1.3,4.7,3.1,6.8c1.7,2.2,4.3,3.9,7.8,5.3c3.5,1.3,7.6,2,12.1,2c4.1,0,7.7-0.6,10.7-1.7
		c3-1.1,5.5-2.8,7.3-5c1.9-2.2,3-4.4,3.3-6.4c0.4-2.1,0.6-5.7,0.6-10.9v-45.6h-19.9v50.2c0,3.4-0.2,5.6-0.6,6.5
		c-0.4,0.9-1.2,1.4-2.4,1.4c-1.1,0-1.8-0.4-2.2-1.2c-0.4-0.8-0.5-2.7-0.5-5.7v-51.1H301.7z M348.9,201.9v13.6h10v54.5h20.3v-54.5
		h9.3v-12.9c0-0.3,0-0.5,0.1-0.7h-0.9H348.9z M401.8,245.4v24.7h18.6v-24.7l-13.8-43.5h-16.9L401.8,245.4z M124.1,201.9l-9.8,68.2
		h20.1c0,0,2.6-39.9,4.6-52.9c1,11.3,2,20.9,3,28.6l-4.4,0.1l-0.9,11.9h5.8l1,12.3h19.9l-11.1-68.2H124.1z M164.9,201.9v68.2h32.7
		v-13.6h-12.3v-54.5H164.9z M200.1,201.9v68.2h31.3v-13.6h-11.8v-54.5H200.1z M271.7,213.6c2.2,0,3.7,0.2,4.4,0.6
		c0.8,0.4,1.3,1,1.5,1.9c0.2,0.9,0.3,2.9,0.3,5.9v26.5c0,4.5-0.3,7.3-1,8.4c-0.7,1-2.4,1.5-5.3,1.5V213.6z M230.6,217.3
		c-1.2,0-2.3,0.2-3.3,0.7s-1.7,1.1-2.2,1.9c-0.5,0.8-0.9,1.7-1,2.7s-0.2,2.7-0.2,5v4.1c0,2.4,0.1,4.1,0.2,5.1c0.1,1,0.4,1.9,1,2.7
		c0.6,0.8,1.3,1.5,2.3,1.9s2,0.6,3.2,0.6c1.2,0,2.3-0.2,3.2-0.6c0.9-0.4,1.7-1.1,2.2-1.9c0.5-0.8,0.9-1.7,1-2.7c0.1-1,0.2-2.7,0.2-5
		v-4.1c0-2.4,0-4.1-0.2-5.1c-0.1-1-0.4-1.9-1-2.7c-0.6-0.8-1.3-1.4-2.3-1.9C232.9,217.5,231.8,217.3,230.6,217.3z M238.7,217.8v23.4
		h5.7v-9.8h3.5v-4.5h-3.5v-4.4h4v-4.7H238.7z M230.7,221.3c0.4,0,0.6,0.2,0.7,0.5c0.1,0.3,0.2,1,0.2,2.1v10.8c0,1.4-0.1,2.3-0.2,2.6
		c-0.1,0.4-0.4,0.6-0.8,0.6c-0.4,0-0.6-0.1-0.7-0.5c-0.1-0.3-0.2-1.2-0.2-2.5v-11c0-1.2,0.1-1.9,0.3-2.2
		C230.1,221.5,230.4,221.3,230.7,221.3z"/>
	<path id="XMLID_19_" class="st1" d="M134.1,278.7h-12.6v5h12.6c0.9,0,1.5-0.1,1.7-0.3c0.3-0.2,0.4-0.5,0.4-1v-2.3
		c0-0.5-0.1-0.8-0.4-1C135.5,278.8,134.9,278.7,134.1,278.7z M134.1,288.7h-12.6v5.4h12.6c1,0,1.6-0.1,1.9-0.4
		c0.3-0.2,0.4-0.7,0.4-1.4v-1.9c0-0.7-0.1-1.1-0.4-1.4C135.6,288.9,135,288.7,134.1,288.7L134.1,288.7z M114.7,299.5v-25.8h21.8
		c2.1,0,3.6,0.4,4.6,1.3c1,0.9,1.5,2.2,1.5,4v3c0,1.3-0.4,2.4-1.2,3.2c-0.8,0.8-1.8,1.1-3,1c1.2-0.1,2.3,0.3,3.2,1.2
		c0.9,0.9,1.3,2.1,1.3,3.5v3.2c0,1.8-0.7,3.1-2,4c-1.3,0.9-3.3,1.3-5.8,1.3H114.7z"/>
	<polygon id="XMLID_20_" class="st1" points="145.6,299.5 145.6,273.8 152.4,273.8 152.4,293.9 176.9,293.9 176.9,299.5 	"/>
	<polygon id="XMLID_21_" class="st1" points="185.6,273.7 171.3,299.5 177.9,299.5 188.5,279.5 198.9,299.5 206.2,299.5 
		191.8,273.7 	"/>
	<path id="XMLID_22_" class="st1" d="M227.3,279.1h-14.5v14.7h14.5l6.8-0.7c0,2.4-0.5,4.1-1.4,5c-1,0.9-2.7,1.4-5.2,1.4h-14.8
		c-2.6,0-4.3-0.5-5.3-1.4c-0.9-0.9-1.4-2.6-1.4-5v-13.1c0-2.4,0.5-4,1.4-5c0.9-0.9,2.7-1.4,5.3-1.4h14.8c2.5,0,4.3,0.5,5.2,1.4
		c1,0.9,1.4,2.6,1.4,4.9L227.3,279.1z"/>
	<polygon id="XMLID_23_" class="st1" points="235.9,293.1 235.9,273.8 242.8,273.8 242.8,284.1 255.8,273.8 264.9,273.8 
		248.5,285.9 266.9,299.5 256.9,299.5 242.8,288.6 	"/>
	<path id="XMLID_26_" class="st1" d="M279.2,280.1c0-2.4,0.5-4,1.4-5c0.9-0.9,2.7-1.4,5.3-1.4h18.3c2.6,0,4.3,0.5,5.3,1.4
		c0.9,0.9,1.4,2.6,1.4,4.9v13.1c0,2.4-0.5,4-1.4,5c-0.9,0.9-2.7,1.4-5.3,1.4h-18.3c-2.6,0-4.3-0.5-5.3-1.4c-0.9-0.9-1.4-2.6-1.4-5
		V280.1z M286,293.9h18v-14.7h-18V293.9z"/>
	<path id="XMLID_29_" class="st1" d="M332.8,279h-12.4v5.6h12.4c0.9,0,1.4-0.1,1.7-0.3c0.3-0.2,0.4-0.6,0.4-1.2v-2.7
		c0-0.6-0.1-1-0.4-1.2C334.2,279.1,333.7,279,332.8,279L332.8,279z M313.6,299.5v-25.8h21.7c2.1,0,3.7,0.4,4.6,1.3
		c1,0.9,1.5,2.2,1.5,4v5.5c0,1.8-0.5,3.1-1.5,4c-1,0.8-2.5,1.3-4.6,1.3h-15v9.7H313.6z"/>
	<path id="XMLID_30_" class="st1" d="M364.2,279.1H349v4.4h14.9c2.6,0,4.3,0.5,5.3,1.4c1,0.9,1.4,2.6,1.4,4.9v3.4c0,2.4-0.5,4-1.4,5
		c-1,0.9-2.7,1.4-5.3,1.4h-15.3c-2.6,0-4.3-0.5-5.3-1.4c-1-0.9-1.4-2.6-1.4-5l6.1,0.7h16.5v-4.7h-14.9c-2.6,0-4.3-0.5-5.3-1.4
		c-0.9-0.9-1.4-2.6-1.4-5v-2.7c0-2.4,0.5-4,1.4-5c0.9-0.9,2.7-1.4,5.3-1.4h14.1c2.5,0,4.2,0.4,5.2,1.3c1,0.9,1.5,2.4,1.5,4.6
		L364.2,279.1z"/>
	<path id="XMLID_33_" class="st2" d="M378.6,273.6c-0.1,0-0.2,0.1-0.2,0.2v9.7c0,0.1,0.1,0.2,0.2,0.2h1.1v5.2h-1.1
		c-0.1,0-0.2,0.1-0.2,0.2v9.7c0,0.1,0.1,0.2,0.2,0.2h7.1c0.1,0,0.2-0.1,0.2-0.2v-9.7v-0.1v-5.5v-0.1v-7.9v-1.9
		c0-0.1-0.1-0.2-0.2-0.2L378.6,273.6L378.6,273.6z M388.4,273.6c-0.1,0-0.2,0.1-0.2,0.2v1.9v7.9v0.1v5.5v0.1v9.7
		c0,0.1,0.1,0.2,0.2,0.2h7.1c0.1,0,0.2-0.1,0.2-0.2v-9.7c0-0.1-0.1-0.2-0.2-0.2h-1.1v-5.2h1.1c0.1,0,0.2-0.1,0.2-0.2v-9.7
		c0-0.1-0.1-0.2-0.2-0.2L388.4,273.6L388.4,273.6z"/>
	
		<linearGradient id="XMLID_50_" gradientUnits="userSpaceOnUse" x1="0.4175" y1="0.9218" x2="1.0349" y2="0.9218" gradientTransform="matrix(0 -114.8402 -114.8402 0 528.0384 318.4952)">
		<stop  offset="0" style="stop-color:#2E2E2E"/>
		<stop  offset="1" style="stop-color:#656565"/>
	</linearGradient>
	<polygon id="XMLID_34_" class="st3" points="411.8,213.8 415.6,202.1 432.5,202.1 421.1,242.6 	"/>
</g>
</svg>
